<svg width="67" height="65" viewBox="0 0 67 65" fill="none" xmlns="http://www.w3.org/2000/svg">
<path d="M63.3544 22.1502H45.8352C44.2588 22.1502 42.8617 21.135 42.3745 19.6357L36.9607 2.97421C35.8715 -0.378019 31.1289 -0.378019 30.0396 2.97421L24.6258 19.6357C24.1387 21.1351 22.7417 22.1502 21.1651 22.1502H3.64577C0.120682 22.1502 -1.34481 26.6608 1.50701 28.7326L15.6803 39.0305C16.9556 39.9568 17.4893 41.5992 17.0022 43.0984L11.5883 59.7605C10.499 63.1127 14.3358 65.9007 17.1876 63.8284L31.3614 53.5309C32.6368 52.6047 34.3636 52.6047 35.6388 53.5309L49.812 63.8284C52.6639 65.9007 56.5008 63.1127 55.4114 59.7605L49.998 43.0983C49.5104 41.599 50.0441 39.9568 51.3194 39.0304L65.4932 28.7324C68.345 26.6608 66.8789 22.1502 63.3544 22.1502Z" fill="#FDDE5A"/>
</svg>
